<?xml version="1.0" encoding="UTF-8"?><svg id="_レイヤー_2" xmlns="http://www.w3.org/2000/svg" xmlns:xlink="http://www.w3.org/1999/xlink" viewBox="0 0 256.83 301.87"><defs><style>.cls-1,.cls-2{fill:none;}.cls-2{stroke:url(#_名称未設定グラデーション);stroke-width:20px;}.cls-3{fill:#575757;}.cls-4{clip-path:url(#clippath-1);}.cls-5{clip-path:url(#clippath);}</style><clipPath id="clippath"><rect class="cls-1" x="10" y="10" width="236.83" height="236.83"/></clipPath><clipPath id="clippath-1"><path class="cls-1" d="M128.42,10C63.02,10,10,63.02,10,128.42s53.02,118.41,118.42,118.41,118.41-53.02,118.41-118.41S193.81,10,128.42,10Z"/></clipPath><linearGradient id="_名称未設定グラデーション" x1="-638.98" y1="591.46" x2="-574.98" y2="591.46" gradientTransform="translate(2374.53 2317.09) scale(3.7 -3.7)" gradientUnits="userSpaceOnUse"><stop offset="0" stop-color="#70eef8"/><stop offset="0" stop-color="#70eef8"/><stop offset="0" stop-color="#71edf8"/><stop offset=".01" stop-color="#72edf8"/><stop offset=".02" stop-color="#72ecf7"/><stop offset=".02" stop-color="#73ecf7"/><stop offset=".02" stop-color="#73ecf7"/><stop offset=".03" stop-color="#74ebf7"/><stop offset=".03" stop-color="#74ebf7"/><stop offset=".04" stop-color="#75eaf7"/><stop offset=".04" stop-color="#75eaf7"/><stop offset=".04" stop-color="#76eaf6"/><stop offset=".05" stop-color="#76e9f6"/><stop offset=".05" stop-color="#77e9f6"/><stop offset=".05" stop-color="#77e8f6"/><stop offset=".06" stop-color="#78e8f6"/><stop offset=".06" stop-color="#79e8f6"/><stop offset=".07" stop-color="#79e7f5"/><stop offset=".07" stop-color="#7ae7f5"/><stop offset=".07" stop-color="#7ae6f5"/><stop offset=".08" stop-color="#7be6f5"/><stop offset=".08" stop-color="#7be6f5"/><stop offset=".09" stop-color="#7ce5f5"/><stop offset=".09" stop-color="#7ce5f4"/><stop offset=".09" stop-color="#7de4f4"/><stop offset=".1" stop-color="#7de4f4"/><stop offset=".1" stop-color="#7ee4f4"/><stop offset=".11" stop-color="#7ee3f4"/><stop offset=".11" stop-color="#7fe3f4"/><stop offset=".11" stop-color="#80e2f3"/><stop offset=".12" stop-color="#80e2f3"/><stop offset=".12" stop-color="#81e2f3"/><stop offset=".12" stop-color="#81e1f3"/><stop offset=".13" stop-color="#82e1f3"/><stop offset=".13" stop-color="#82e0f3"/><stop offset=".14" stop-color="#83e0f2"/><stop offset=".14" stop-color="#83e0f2"/><stop offset=".14" stop-color="#84dff2"/><stop offset=".15" stop-color="#84dff2"/><stop offset=".15" stop-color="#85def2"/><stop offset=".16" stop-color="#85def2"/><stop offset=".16" stop-color="#86def2"/><stop offset=".16" stop-color="#87ddf1"/><stop offset=".17" stop-color="#87ddf1"/><stop offset=".17" stop-color="#88dcf1"/><stop offset=".18" stop-color="#88dcf1"/><stop offset=".18" stop-color="#89dcf1"/><stop offset=".18" stop-color="#89dbf1"/><stop offset=".19" stop-color="#8adbf0"/><stop offset=".19" stop-color="#8adaf0"/><stop offset=".2" stop-color="#8bdaf0"/><stop offset=".2" stop-color="#8bdaf0"/><stop offset=".2" stop-color="#8cd9f0"/><stop offset=".21" stop-color="#8dd9f0"/><stop offset=".21" stop-color="#8dd8ef"/><stop offset=".21" stop-color="#8ed8ef"/><stop offset=".22" stop-color="#8ed8ef"/><stop offset=".22" stop-color="#8fd7ef"/><stop offset=".23" stop-color="#8fd7ef"/><stop offset=".23" stop-color="#90d6ef"/><stop offset=".23" stop-color="#90d6ee"/><stop offset=".24" stop-color="#91d6ee"/><stop offset=".24" stop-color="#91d5ee"/><stop offset=".25" stop-color="#92d5ee"/><stop offset=".25" stop-color="#92d4ee"/><stop offset=".25" stop-color="#93d4ee"/><stop offset=".26" stop-color="#94d4ee"/><stop offset=".26" stop-color="#94d3ed"/><stop offset=".27" stop-color="#95d3ed"/><stop offset=".27" stop-color="#95d2ed"/><stop offset=".27" stop-color="#96d2ed"/><stop offset=".28" stop-color="#96d2ed"/><stop offset=".28" stop-color="#97d1ed"/><stop offset=".29" stop-color="#97d1ec"/><stop offset=".29" stop-color="#98d0ec"/><stop offset=".29" stop-color="#98d0ec"/><stop offset=".3" stop-color="#99d0ec"/><stop offset=".3" stop-color="#99cfec"/><stop offset=".3" stop-color="#9acfec"/><stop offset=".31" stop-color="#9bceeb"/><stop offset=".31" stop-color="#9bceeb"/><stop offset=".32" stop-color="#9cceeb"/><stop offset=".32" stop-color="#9ccdeb"/><stop offset=".32" stop-color="#9dcdeb"/><stop offset=".33" stop-color="#9dcceb"/><stop offset=".33" stop-color="#9eccea"/><stop offset=".34" stop-color="#9eccea"/><stop offset=".34" stop-color="#9fcbea"/><stop offset=".34" stop-color="#9fcbea"/><stop offset=".35" stop-color="#a0caea"/><stop offset=".35" stop-color="#a0caea"/><stop offset=".36" stop-color="#a1caea"/><stop offset=".36" stop-color="#a2c9e9"/><stop offset=".36" stop-color="#a2c9e9"/><stop offset=".37" stop-color="#a3c8e9"/><stop offset=".37" stop-color="#a3c8e9"/><stop offset=".38" stop-color="#a4c8e9"/><stop offset=".38" stop-color="#a4c7e9"/><stop offset=".38" stop-color="#a5c7e8"/><stop offset=".39" stop-color="#a5c6e8"/><stop offset=".39" stop-color="#a6c6e8"/><stop offset=".39" stop-color="#a6c6e8"/><stop offset=".4" stop-color="#a7c5e8"/><stop offset=".4" stop-color="#a7c5e8"/><stop offset=".41" stop-color="#a8c4e7"/><stop offset=".41" stop-color="#a9c4e7"/><stop offset=".41" stop-color="#a9c4e7"/><stop offset=".42" stop-color="#aac3e7"/><stop offset=".42" stop-color="#aac3e7"/><stop offset=".43" stop-color="#abc2e7"/><stop offset=".43" stop-color="#abc2e6"/><stop offset=".43" stop-color="#acc2e6"/><stop offset=".44" stop-color="#acc1e6"/><stop offset=".44" stop-color="#adc1e6"/><stop offset=".45" stop-color="#adc0e6"/><stop offset=".45" stop-color="#aec0e6"/><stop offset=".45" stop-color="#aec0e6"/><stop offset=".46" stop-color="#afbfe5"/><stop offset=".46" stop-color="#b0bfe5"/><stop offset=".46" stop-color="#b0bee5"/><stop offset=".47" stop-color="#b1bee5"/><stop offset=".47" stop-color="#b1bee5"/><stop offset=".48" stop-color="#b2bde5"/><stop offset=".48" stop-color="#b2bde4"/><stop offset=".48" stop-color="#b3bde4"/><stop offset=".49" stop-color="#b3bce4"/><stop offset=".49" stop-color="#b4bce4"/><stop offset=".5" stop-color="#b4bbe4"/><stop offset=".5" stop-color="#b5bbe4"/><stop offset=".5" stop-color="#b5bbe3"/><stop offset=".51" stop-color="#b6bae3"/><stop offset=".51" stop-color="#b7bae3"/><stop offset=".52" stop-color="#b7b9e3"/><stop offset=".52" stop-color="#b8b9e3"/><stop offset=".52" stop-color="#b8b9e3"/><stop offset=".53" stop-color="#b9b8e2"/><stop offset=".53" stop-color="#b9b8e2"/><stop offset=".54" stop-color="#bab7e2"/><stop offset=".54" stop-color="#bab7e2"/><stop offset=".54" stop-color="#bbb7e2"/><stop offset=".55" stop-color="#bbb6e2"/><stop offset=".55" stop-color="#bcb6e1"/><stop offset=".55" stop-color="#bcb5e1"/><stop offset=".56" stop-color="#bdb5e1"/><stop offset=".56" stop-color="#beb5e1"/><stop offset=".57" stop-color="#beb4e1"/><stop offset=".57" stop-color="#bfb4e1"/><stop offset=".57" stop-color="#bfb3e1"/><stop offset=".58" stop-color="#c0b3e0"/><stop offset=".58" stop-color="#c0b3e0"/><stop offset=".59" stop-color="#c1b2e0"/><stop offset=".59" stop-color="#c1b2e0"/><stop offset=".59" stop-color="#c2b1e0"/><stop offset=".6" stop-color="#c2b1e0"/><stop offset=".6" stop-color="#c3b1df"/><stop offset=".61" stop-color="#c3b0df"/><stop offset=".61" stop-color="#c4b0df"/><stop offset=".61" stop-color="#c5afdf"/><stop offset=".62" stop-color="#c5afdf"/><stop offset=".62" stop-color="#c6afdf"/><stop offset=".62" stop-color="#c6aede"/><stop offset=".63" stop-color="#c7aede"/><stop offset=".63" stop-color="#c7adde"/><stop offset=".64" stop-color="#c8adde"/><stop offset=".64" stop-color="#c8adde"/><stop offset=".64" stop-color="#c9acde"/><stop offset=".65" stop-color="#c9acdd"/><stop offset=".65" stop-color="#caabdd"/><stop offset=".66" stop-color="#caabdd"/><stop offset=".66" stop-color="#cbabdd"/><stop offset=".66" stop-color="#cad"/><stop offset=".67" stop-color="#cad"/><stop offset=".67" stop-color="#cda9dd"/><stop offset=".68" stop-color="#cda9dc"/><stop offset=".68" stop-color="#cea9dc"/><stop offset=".68" stop-color="#cea8dc"/><stop offset=".69" stop-color="#cfa8dc"/><stop offset=".69" stop-color="#cfa7dc"/><stop offset=".7" stop-color="#d0a7dc"/><stop offset=".7" stop-color="#d0a7db"/><stop offset=".7" stop-color="#d1a6db"/><stop offset=".71" stop-color="#d1a6db"/><stop offset=".71" stop-color="#d2a5db"/><stop offset=".71" stop-color="#d3a5db"/><stop offset=".72" stop-color="#d3a5db"/><stop offset=".72" stop-color="#d4a4da"/><stop offset=".73" stop-color="#d4a4da"/><stop offset=".73" stop-color="#d5a3da"/><stop offset=".73" stop-color="#d5a3da"/><stop offset=".74" stop-color="#d6a3da"/><stop offset=".74" stop-color="#d6a2da"/><stop offset=".75" stop-color="#d7a2d9"/><stop offset=".75" stop-color="#d7a1d9"/><stop offset=".75" stop-color="#d8a1d9"/><stop offset=".76" stop-color="#d8a1d9"/><stop offset=".76" stop-color="#d9a0d9"/><stop offset=".77" stop-color="#daa0d9"/><stop offset=".77" stop-color="#da9fd9"/><stop offset=".77" stop-color="#db9fd8"/><stop offset=".78" stop-color="#db9fd8"/><stop offset=".78" stop-color="#dc9ed8"/><stop offset=".79" stop-color="#dc9ed8"/><stop offset=".79" stop-color="#dd9dd8"/><stop offset=".79" stop-color="#dd9dd8"/><stop offset=".8" stop-color="#de9dd7"/><stop offset=".8" stop-color="#de9cd7"/><stop offset=".8" stop-color="#df9cd7"/><stop offset=".81" stop-color="#df9bd7"/><stop offset=".81" stop-color="#e09bd7"/><stop offset=".82" stop-color="#e19bd7"/><stop offset=".82" stop-color="#e19ad6"/><stop offset=".82" stop-color="#e29ad6"/><stop offset=".83" stop-color="#e299d6"/><stop offset=".83" stop-color="#e399d6"/><stop offset=".84" stop-color="#e399d6"/><stop offset=".84" stop-color="#e498d6"/><stop offset=".84" stop-color="#e498d5"/><stop offset=".85" stop-color="#e597d5"/><stop offset=".85" stop-color="#e597d5"/><stop offset=".86" stop-color="#e697d5"/><stop offset=".86" stop-color="#e696d5"/><stop offset=".86" stop-color="#e796d5"/><stop offset=".87" stop-color="#e895d5"/><stop offset=".87" stop-color="#e895d4"/><stop offset=".88" stop-color="#e995d4"/><stop offset=".88" stop-color="#e994d4"/><stop offset=".88" stop-color="#ea94d4"/><stop offset=".89" stop-color="#ea93d4"/><stop offset=".89" stop-color="#eb93d4"/><stop offset=".89" stop-color="#eb93d3"/><stop offset=".9" stop-color="#ec92d3"/><stop offset=".9" stop-color="#ec92d3"/><stop offset=".91" stop-color="#ed91d3"/><stop offset=".91" stop-color="#ee91d3"/><stop offset=".91" stop-color="#ee91d3"/><stop offset=".92" stop-color="#ef90d2"/><stop offset=".92" stop-color="#ef90d2"/><stop offset=".93" stop-color="#f08fd2"/><stop offset=".93" stop-color="#f08fd2"/><stop offset=".93" stop-color="#f18fd2"/><stop offset=".94" stop-color="#f18ed2"/><stop offset=".94" stop-color="#f28ed1"/><stop offset=".95" stop-color="#f28dd1"/><stop offset=".95" stop-color="#f38dd1"/><stop offset=".95" stop-color="#f38dd1"/><stop offset=".96" stop-color="#f48cd1"/><stop offset=".96" stop-color="#f58cd1"/><stop offset=".96" stop-color="#f58bd0"/><stop offset=".97" stop-color="#f68bd0"/><stop offset=".97" stop-color="#f68bd0"/><stop offset=".98" stop-color="#f78ad0"/><stop offset=".98" stop-color="#f78ad0"/><stop offset=".98" stop-color="#f88ad0"/><stop offset=".99" stop-color="#f889d0"/><stop offset=".99" stop-color="#f989cf"/><stop offset="1" stop-color="#f988cf"/><stop offset="1" stop-color="#fa88cf"/></linearGradient></defs><g id="_レイヤー_1-2"><g class="cls-5"><g class="cls-4"><path class="cls-2" d="M128.42,10C63.02,10,10,63.02,10,128.42s53.02,118.41,118.42,118.41,118.41-53.02,118.41-118.41S193.81,10,128.42,10Z"/></g></g><path class="cls-3" d="M170.9,185.1l-3.99-6.88c4.82-4.08,8.89-8.76,12.19-14.04,3.31-5.28,5.81-11.03,7.48-17.25,2.17-8.14,2.71-16.32,1.62-24.53-1.07-8.21-3.71-15.95-7.9-23.23-4.2-7.26-9.58-13.43-16.13-18.51-6.55-5.09-13.9-8.73-22.04-10.91-14-3.69-27.62-2.74-40.86,2.85l-3.81-6.68c3.18-1.4,6.39-2.55,9.63-3.43,3.25-.89,6.59-1.59,10.03-2.09,4.45-.64,8.97-.77,13.56-.38,4.58.38,9.04,1.14,13.36,2.29,8.92,2.3,17.07,6.25,24.45,11.85,7.49,5.61,13.65,12.68,18.49,21.22,4.84,8.26,7.82,17.11,8.95,26.54,1.15,9.16.51,18.19-1.93,27.1-2.29,8.92-6.23,17-11.83,24.23-3.3,4.47-7.06,8.42-11.27,11.85ZM134.42,200.73c-9.03,1.15-18.06.57-27.1-1.74-9.04-2.54-17.12-6.54-24.25-12.01-7.62-5.75-13.85-12.76-18.69-21.02-4.71-8.53-7.63-17.38-8.77-26.56-1.15-9.41-.51-18.44,1.93-27.1,2.3-8.79,6.24-16.93,11.83-24.45,4.08-5.21,8.67-9.79,13.78-13.72l3.99,6.88c-11.07,8.25-18.47,19.38-22.18,33.38-2.16,8.16-2.7,16.31-1.62,24.45,1.07,8.14,3.71,15.91,7.92,23.29,4.2,7.26,9.57,13.41,16.11,18.45,6.55,5.03,13.9,8.62,22.04,10.79,13.37,3.57,26.23,2.94,38.57-1.91l3.83,6.9c-2.81,1.14-5.65,2.06-8.5,2.77-2.86.7-5.83,1.23-8.89,1.6ZM174.13,205.14h-8.97l-39.29-67.99h8.97l39.29,67.99Z"/><path class="cls-3" d="M62.31,290.47c.18-1.38-.02-2.52-.6-3.44s-1.8-1.81-3.65-2.69c-1.83-.88-3.37-1.78-4.6-2.73-3.39-2.58-4.95-5.83-4.67-9.75.17-2.25.88-4.26,2.13-6.02,1.25-1.78,2.92-3.15,5-4.13,2.09-.98,4.34-1.45,6.73-1.4,3.46.07,6.16,1.27,8.1,3.6,1.96,2.32,2.86,5.29,2.71,8.92l-7.94-.04c.21-3.79-1-5.71-3.63-5.77-1.35-.03-2.51.42-3.48,1.33-.97.91-1.56,2.08-1.77,3.52-.28,2.17,1.22,4.02,4.5,5.56,3.28,1.53,5.63,3.26,7.04,5.19,1.59,2.13,2.27,4.72,2.02,7.77-.28,3.52-1.67,6.32-4.17,8.42-2.49,2.1-5.6,3.11-9.33,3.04-3.77-.07-6.74-1.34-8.92-3.81-2.18-2.48-3.18-5.67-3-9.54l8,.04c-.16,2.38.15,4.08.92,5.1.78,1.03,1.98,1.54,3.63,1.54,1.44-.01,2.58-.46,3.42-1.33.83-.89,1.35-2.02,1.56-3.4Z"/><path class="cls-3" d="M109.73,301.29h-7.94l3-17.29h-11.63l-3,17.29h-7.96l7-40.4h7.96l-2.83,16.33h11.63l2.85-16.33h7.94l-7.02,40.4Z"/><path class="cls-3" d="M133.08,301.29h-7.96l7.02-40.4h7.96l-7.02,40.4Z"/><path class="cls-3" d="M171.56,284.81h-12.31l-2.85,16.48h-7.96l7-40.4h21.75l-1.19,6.79h-13.77l-1.81,10.35h12.33l-1.19,6.77Z"/><path class="cls-3" d="M214.66,267.68h-9.69l-5.83,33.6h-7.98l5.81-33.6h-9.54l1.19-6.79h27.23l-1.19,6.79Z"/></g></svg>